<?xml version="1.0" encoding="utf-8"?><svg xml:space="preserve" viewBox="0 0 100 100" y="0" x="0" xmlns="http://www.w3.org/2000/svg" id="Layer_1" version="1.1" width="200px" height="200px" xmlns:xlink="http://www.w3.org/1999/xlink" style="width:100%;height:100%;background-size:initial;background-repeat-y:initial;background-repeat-x:initial;background-position-y:initial;background-position-x:initial;background-origin:initial;background-image:initial;background-color:rgb(82, 129, 255);background-clip:initial;background-attachment:initial;animation-play-state:paused" ><g class="ldl-scale" style="transform-origin:50% 50%;transform:rotate(0deg) scale(0.8, 0.8);animation-play-state:paused" ><g style="animation-play-state:paused" ><path d="M45 47h10v31H45z" stroke="#333" fill="#e0e0e0" stroke-miterlimit="10" stroke-width="3.5" style="stroke:rgb(51, 51, 51);fill:rgb(224, 224, 224);animation-play-state:paused" ></path>
<path stroke-miterlimit="10" stroke-linejoin="round" stroke-width="3.5" stroke="#333" fill="#e0e0e0" d="M70 84H30l.457-1.702A8.508 8.508 0 0 1 38.672 76h22.655a8.507 8.507 0 0 1 8.215 6.298L70 84z" style="stroke:rgb(51, 51, 51);fill:rgb(224, 224, 224);animation-play-state:paused" ></path></g>
<path stroke="#333" fill="#fff" stroke-miterlimit="10" stroke-width="3.5" d="M79.333 62H20.667A4.666 4.666 0 0 1 16 57.333V22.667A4.666 4.666 0 0 1 20.667 18h58.667A4.666 4.666 0 0 1 84 22.667v34.667A4.666 4.666 0 0 1 79.333 62z" style="stroke:rgb(51, 51, 51);fill:rgb(255, 255, 255);animation-play-state:paused" ></path>
<g style="animation-play-state:paused" ><path d="M60.075 27.625L67.6 40l-7.525 12.375" stroke-miterlimit="10" stroke-width="3.5" stroke="#333" fill="none" style="stroke:rgb(51, 51, 51);animation-play-state:paused" ></path>
<path d="M39.925 52.375L32.4 40l7.525-12.375" stroke-miterlimit="10" stroke-width="3.5" stroke="#333" fill="none" style="stroke:rgb(51, 51, 51);animation-play-state:paused" ></path>
<path d="M54.808 23.5l-9.616 33" stroke-miterlimit="10" stroke-width="3.5" stroke="#333" fill="none" style="stroke:rgb(51, 51, 51);animation-play-state:paused" ></path></g>
<metadata xmlns:d="https://loading.io/stock/" style="animation-play-state:paused" ><d:name style="animation-play-state:paused" >html</d:name>


<d:tags style="animation-play-state:paused" >html,developer,code,frontend,web,engineer,coding,hack,software</d:tags>


<d:license style="animation-play-state:paused" >by</d:license>


<d:slug style="animation-play-state:paused" >7h5t66</d:slug></metadata></g><!-- generated by https://loading.io/ --></svg>