<?xml version="1.0" encoding="utf-8"?><svg viewBox="0 0 100 100" xmlns="http://www.w3.org/2000/svg" width="200px" height="200px" xmlns:xlink="http://www.w3.org/1999/xlink" style="width:100%;height:100%;background-size:initial;background-repeat-y:initial;background-repeat-x:initial;background-position-y:initial;background-position-x:initial;background-origin:initial;background-image:initial;background-color:rgb(82, 129, 255);background-clip:initial;background-attachment:initial;animation-play-state:paused" ><g class="ldl-scale" style="transform-origin:50% 50%;transform:rotate(0deg) scale(0.8, 0.8);animation-play-state:paused" ><g style="animation-play-state:paused" ><path d="M15.194 66.89V24.667h69.612V66.89" stroke-miterlimit="10" stroke-linejoin="round" stroke-linecap="round" stroke-width="3" stroke="#323232" fill="none" style="stroke:rgb(50, 50, 50);animation-play-state:paused" ></path>
<path stroke-miterlimit="10" stroke-linejoin="round" stroke-linecap="round" stroke-width="3" stroke="#323232" fill="none" d="M58.627 66.89c-.645 1.248-1.933 2.11-3.435 2.11H44.808c-1.502 0-2.79-.862-3.435-2.11H8.333a8.333 8.333 0 0 0 8.333 8.333h66.667a8.333 8.333 0 0 0 8.333-8.333H58.627z" style="stroke:rgb(50, 50, 50);animation-play-state:paused" ></path></g>
<g style="animation-play-state:paused" ><path stroke-miterlimit="10" stroke-linejoin="round" stroke-linecap="round" stroke-width="3" stroke="#f5e169" fill="none" d="M57.7 36.733H44.867a5.133 5.133 0 0 0-5.133 5.133v0a5.133 5.133 0 0 0 5.133 5.133h10.267a5.133 5.133 0 0 1 5.133 5.133v0a5.133 5.133 0 0 1-5.133 5.133h-15.4" style="stroke:rgb(245, 225, 105);animation-play-state:paused" ></path>
<path d="M47.205 33v28" stroke-miterlimit="10" stroke-linejoin="round" stroke-linecap="round" stroke-width="3" stroke="#f5e169" fill="none" style="stroke:rgb(245, 225, 105);animation-play-state:paused" ></path>
<path d="M52.795 33v28" stroke-miterlimit="10" stroke-linejoin="round" stroke-linecap="round" stroke-width="3" stroke="#f5e169" fill="none" style="stroke:rgb(245, 225, 105);animation-play-state:paused" ></path></g>
<metadata xmlns:d="https://loading.io/stock/" style="animation-play-state:paused" ><d:name style="animation-play-state:paused" >money</d:name>


<d:tags style="animation-play-state:paused" >money,price,sale,purchase,payment,notebook,macbook,computer,desktop,laptop,website</d:tags>


<d:license style="animation-play-state:paused" >by</d:license>


<d:slug style="animation-play-state:paused" >fn1fkd</d:slug></metadata></g><!-- generated by https://loading.io/ --></svg>